<mxfile host="app.diagrams.net" modified="2024-07-18T11:46:06.544Z" agent="Mozilla/5.0 (X11; Linux x86_64; rv:128.0) Gecko/20100101 Firefox/128.0" etag="QNMyy52oRvLCL-GYx0-J" version="22.1.16" type="github">
  <diagram name="PÃ¡gina-1" id="dgDxY93Ykha_-oFBlckw">
    <mxGraphModel dx="880" dy="477" grid="1" gridSize="10" guides="1" tooltips="1" connect="1" arrows="1" fold="1" page="1" pageScale="1" pageWidth="827" pageHeight="1169" math="0" shadow="0">
      <root>
        <mxCell id="0" />
        <mxCell id="1" parent="0" />
        <mxCell id="awlY_hI1gOcpouPYvgw0-2" value="" style="whiteSpace=wrap;html=1;aspect=fixed;fillColor=none;" vertex="1" parent="1">
          <mxGeometry x="170" y="20" width="430" height="430" as="geometry" />
        </mxCell>
        <mxCell id="awlY_hI1gOcpouPYvgw0-3" value="Agendamento" style="shape=hexagon;perimeter=hexagonPerimeter2;whiteSpace=wrap;html=1;fixedSize=1;" vertex="1" parent="1">
          <mxGeometry x="220" y="100" width="120" height="80" as="geometry" />
        </mxCell>
        <mxCell id="awlY_hI1gOcpouPYvgw0-4" value="Teleconsulta" style="shape=hexagon;perimeter=hexagonPerimeter2;whiteSpace=wrap;html=1;fixedSize=1;" vertex="1" parent="1">
          <mxGeometry x="350" y="220" width="120" height="80" as="geometry" />
        </mxCell>
      </root>
    </mxGraphModel>
  </diagram>
</mxfile>
